<svg width="683" height="567" viewBox="0 0 683 567" fill="none" xmlns="http://www.w3.org/2000/svg">
<path d="M341.658 403.218L351.864 634.716C351.864 634.716 347.328 640.548 332.1 640.71C316.872 640.872 311.526 633.258 311.526 633.258L285.768 447.606C285.768 447.606 259.686 608.148 258.066 631.152C258.066 631.152 234.9 638.766 221.94 628.722L237.492 373.734L336.15 372.438L341.658 403.218Z" fill="white"/>
<path d="M331.29 641.844C316.062 641.844 310.554 634.23 310.392 633.906C310.23 633.744 310.23 633.582 310.23 633.42L285.606 455.868C280.26 488.592 260.658 611.55 259.2 631.314C259.2 631.8 258.876 632.286 258.39 632.448C257.418 632.772 234.414 640.224 221.13 629.856C220.806 629.694 220.644 629.208 220.644 628.884L236.196 373.896C236.196 373.248 236.682 372.762 237.33 372.762L335.988 371.466C336.636 371.466 337.122 371.952 337.122 372.438L342.63 403.056V403.218L352.836 634.716C352.836 635.04 352.836 635.364 352.674 635.526C352.512 635.85 347.652 641.844 331.938 642.006L331.29 641.844ZM312.66 632.772C313.632 633.906 318.978 639.576 331.938 639.414C344.25 639.252 349.434 635.364 350.568 634.23L340.362 403.38L335.016 373.734L238.626 375.03L223.074 628.236C234.09 636.336 252.882 631.476 256.77 630.342C258.876 604.584 284.148 449.064 284.31 447.444C284.472 446.796 284.958 446.472 285.444 446.472C286.092 446.472 286.578 446.958 286.578 447.444L312.66 632.772Z" fill="#231F20"/>
<path d="M247.05 385.236L336.312 391.068C333.234 366.444 329.994 341.82 326.592 317.196C323.352 294.192 323.028 267.462 308.772 247.86C302.454 239.112 290.304 228.42 278.802 231.174C267.786 233.928 255.15 243 245.106 248.67L247.05 385.236Z" fill="#231F20"/>
<path d="M336.312 392.364L247.05 386.532C246.402 386.532 245.916 385.884 245.916 385.236V385.074L244.134 248.508C244.134 248.022 244.296 247.698 244.782 247.374C247.212 245.916 249.966 244.296 252.72 242.676C260.982 237.654 270.378 231.984 278.802 229.878C290.466 226.962 302.94 237.33 309.906 247.05C321.57 263.25 324 283.824 326.268 303.588C326.754 308.286 327.24 312.66 327.888 316.872C331.29 340.848 334.53 365.634 337.608 390.906C337.608 391.23 337.608 391.554 337.284 391.878C336.96 392.202 336.636 392.364 336.312 392.364ZM248.184 384.102L334.854 389.772C331.776 365.148 328.536 340.686 325.296 317.196C324.648 312.822 324.162 308.448 323.676 303.75C321.408 284.148 319.14 263.898 307.8 248.346C302.454 241.056 290.466 229.392 279.126 232.146C271.026 234.09 261.954 239.76 253.854 244.782C251.262 246.402 248.832 247.86 246.402 249.318L248.184 384.102Z" fill="#231F20"/>
<path d="M271.674 247.86L278.964 252.882L274.266 255.474L282.852 335.502L274.914 346.194L265.68 332.586L269.406 256.284L265.518 252.072L271.674 247.86Z" fill="white"/>
<path d="M274.914 347.328C274.59 347.328 274.104 347.166 273.942 346.842L264.708 333.234C264.546 333.072 264.546 332.748 264.546 332.424L268.272 256.608L264.708 252.882C264.384 252.558 264.384 252.234 264.384 251.91C264.384 251.586 264.546 251.262 264.87 251.1L271.026 246.888C271.512 246.564 271.998 246.564 272.322 246.888L279.612 251.748C279.936 251.91 280.098 252.396 280.098 252.72C280.098 253.206 279.774 253.53 279.45 253.692L275.4 255.96L283.986 335.178C283.986 335.502 283.986 335.826 283.824 335.988L275.886 346.518C275.724 347.166 275.4 347.328 274.914 347.328ZM266.814 332.1L274.914 343.926L281.556 335.178L272.97 255.636C272.97 255.15 273.132 254.664 273.618 254.502L276.696 252.72L271.674 249.318L267.3 252.234L270.216 255.312C270.378 255.474 270.54 255.96 270.54 256.284L266.814 332.1Z" fill="#231F20"/>
<path d="M259.848 230.364C259.848 230.364 253.692 397.872 254.502 408.24L225.99 406.296C225.99 406.296 231.66 332.91 228.744 306.828C228.744 306.828 214.65 262.764 223.56 249.966C232.47 237.168 259.848 230.364 259.848 230.364Z" fill="#035FAA"/>
<path d="M293.22 228.258C293.22 228.258 328.86 235.548 353.322 253.044C377.784 270.54 409.86 315.9 410.022 326.916C410.184 337.932 358.83 383.616 358.83 383.616L344.412 362.394C344.412 362.394 372.762 327.726 368.874 318.168C364.986 308.61 339.066 289.494 339.066 289.494C339.066 289.494 336.312 319.302 337.608 330.156C338.904 341.01 352.512 402.408 351.216 419.094L325.944 413.424C325.944 413.424 323.676 386.532 314.442 367.254C305.208 347.976 296.136 332.1 290.466 301.32C284.796 270.54 293.22 228.258 293.22 228.258Z" fill="#035FAA"/>
<path d="M297.27 195.696C298.89 190.512 300.186 185.166 301.158 179.658C302.13 174.15 300.996 168.642 298.404 163.782C297.27 161.838 295.65 160.38 293.544 159.57C291.438 158.76 289.008 159.408 287.55 161.028C286.092 158.922 283.986 157.302 281.718 156.168C276.372 153.252 270.216 151.956 264.222 152.28C259.2 152.442 254.34 154.386 250.452 157.788C247.212 161.028 245.916 165.726 245.106 170.1C244.134 174.312 243.972 178.524 244.782 182.736C246.888 193.104 256.446 196.182 265.68 198.45C269.73 199.584 274.104 200.07 278.316 199.746C282.69 199.422 286.578 197.478 289.494 194.076" fill="#231F20"/>
<path d="M275.724 201.204C272.16 201.042 268.596 200.556 265.194 199.746C255.474 197.316 245.592 194.076 243.486 183.06C242.838 178.686 243 174.312 243.81 170.1C244.62 165.888 245.916 160.704 249.48 157.14C253.53 153.576 258.552 151.47 264.06 151.308C270.378 150.984 276.696 152.442 282.204 155.358C284.31 156.33 286.092 157.788 287.712 159.408C289.494 158.112 291.924 157.788 293.868 158.598C296.136 159.57 298.08 161.19 299.376 163.296C302.778 168.804 302.94 175.446 302.454 179.982C301.806 184.032 300.996 188.082 299.7 191.97C299.376 193.266 298.89 194.724 298.566 196.182C298.404 196.83 297.756 197.154 297.108 196.992C296.46 196.83 296.136 196.182 296.298 195.534C296.622 194.076 297.108 192.78 297.432 191.322C298.566 187.596 299.538 183.708 300.024 179.658C300.51 175.446 300.51 169.452 297.432 164.592C296.46 162.972 295.002 161.676 293.22 160.866C291.6 160.218 289.818 160.704 288.522 162C288.036 162.486 287.388 162.648 286.74 162.162C286.578 162 286.578 162 286.416 161.838C284.958 159.894 283.176 158.436 281.07 157.464C275.886 154.71 270.054 153.414 264.222 153.576C259.362 153.738 254.826 155.52 251.262 158.76C248.184 161.838 246.888 166.536 246.24 170.424C245.43 174.474 245.268 178.524 245.916 182.574C247.86 192.132 256.77 195.21 265.842 197.316C269.892 198.45 273.942 198.936 278.154 198.612C282.204 198.288 285.93 196.506 288.522 193.428C289.008 192.942 289.656 192.78 290.304 193.266C290.79 193.752 290.952 194.4 290.466 195.048C287.388 198.612 283.176 200.718 278.478 201.204C277.506 201.042 276.534 201.204 275.724 201.204Z" fill="#231F20"/>
<path d="M260.172 218.376L258.714 237.654C258.714 237.654 260.982 250.29 273.618 247.698C281.232 246.078 287.712 241.218 291.276 234.414L292.734 198.936C292.734 198.936 283.662 193.59 287.226 173.34C276.696 177.228 265.356 178.362 254.34 176.418C254.34 176.418 247.698 198.126 248.832 207.846C249.804 217.89 260.172 218.376 260.172 218.376Z" fill="white"/>
<path d="M270.54 249.48C267.948 249.48 265.518 248.832 263.412 247.374C260.334 245.106 258.39 241.704 257.58 237.978C257.58 237.816 257.58 237.816 257.58 237.654L259.038 219.51C255.96 219.024 248.67 216.918 247.698 208.332C246.564 198.45 253.044 177.228 253.368 176.256C253.53 175.608 254.178 175.284 254.664 175.446C265.518 177.228 276.534 176.256 286.74 172.368C287.226 172.206 287.55 172.206 288.036 172.53C288.36 172.854 288.522 173.34 288.522 173.664C285.12 192.618 293.382 197.802 293.382 197.964C293.706 198.126 294.03 198.612 294.03 199.098L292.572 234.576C292.572 234.738 292.572 234.9 292.41 235.062C288.684 242.352 281.88 247.536 273.942 249.156C272.808 249.318 271.674 249.48 270.54 249.48ZM260.01 237.816C260.658 240.894 262.44 243.486 264.87 245.43C267.462 247.05 270.54 247.536 273.456 246.726C280.584 245.268 286.74 240.732 290.142 234.252L291.438 199.746C289.332 198.126 283.338 191.808 285.606 175.446C275.724 178.686 265.356 179.658 255.15 178.038C253.854 182.412 248.994 199.746 249.966 208.008C250.938 216.594 259.848 217.242 260.172 217.242C260.82 217.242 261.306 217.89 261.306 218.538C261.306 218.7 261.306 218.7 261.306 218.862L260.01 237.816Z" fill="#231F20"/>
<path d="M259.362 228.582C259.362 228.582 264.384 229.878 270.054 224.694C275.724 219.51 275.562 216.432 275.562 216.432C270.864 218.862 265.356 219.51 260.172 218.376L259.362 228.582Z" fill="#231F20"/>
<path d="M260.82 229.878C260.172 229.878 259.686 229.878 259.038 229.716C258.39 229.554 258.066 229.068 258.066 228.42L258.876 218.376C258.876 218.052 259.038 217.728 259.362 217.404C259.686 217.242 260.01 217.08 260.334 217.242C265.194 218.214 270.378 217.566 274.914 215.298C275.562 214.974 276.21 215.136 276.534 215.784C276.534 215.946 276.696 216.108 276.696 216.27C276.696 216.594 276.858 220.158 270.864 225.504C268.272 228.258 264.708 229.716 260.82 229.878ZM260.658 227.448C263.898 227.286 266.976 225.99 269.406 223.722C271.188 222.264 272.646 220.482 273.78 218.538C269.892 219.996 265.518 220.482 261.306 219.834L260.658 227.448Z" fill="#231F20"/>
<path d="M265.194 189.54C265.194 189.54 258.876 200.394 260.658 202.014C262.44 203.634 266.976 202.338 266.976 202.338" fill="white"/>
<path d="M263.412 204.12C262.116 204.282 260.82 203.796 259.848 202.986C257.904 201.042 261.144 194.238 264.222 189.054C264.546 188.406 265.356 188.244 265.842 188.568C266.49 188.892 266.652 189.702 266.328 190.188C263.412 195.048 261.306 200.232 261.63 201.366C262.44 202.014 265.032 201.69 266.652 201.204C267.3 201.042 267.948 201.366 268.11 202.014C268.272 202.662 267.948 203.31 267.3 203.472C266.004 203.958 264.708 204.12 263.412 204.12Z" fill="#231F20"/>
<path d="M275.327 191.484C276.042 191.461 276.583 190.211 276.535 188.69C276.486 187.17 275.867 185.956 275.152 185.979C274.436 186.002 273.896 187.252 273.944 188.773C273.992 190.293 274.611 191.507 275.327 191.484Z" fill="#231F20"/>
<path d="M259.705 186.716C259.796 185.197 259.291 183.932 258.576 183.889C257.862 183.846 257.209 185.042 257.118 186.56C257.026 188.079 257.532 189.344 258.246 189.387C258.961 189.43 259.614 188.234 259.705 186.716Z" fill="#231F20"/>
<path d="M284.796 193.59C285.93 191.646 287.55 190.026 289.332 188.73C290.304 187.92 291.438 187.434 292.572 187.434C293.544 187.434 294.516 187.758 295.326 188.406C297.756 190.026 299.538 192.456 300.024 195.372C300.348 196.668 300.186 198.126 299.862 199.422C299.052 201.366 297.594 202.986 295.812 203.958C294.03 204.93 292.086 205.74 289.98 206.226" fill="white"/>
<path d="M289.818 207.36C289.17 207.36 288.522 206.874 288.522 206.226C288.522 205.74 288.846 205.254 289.332 205.092C291.276 204.606 293.058 203.796 294.84 202.986C296.46 202.176 297.756 200.718 298.404 199.098C298.728 197.964 298.89 196.83 298.566 195.696C298.08 193.104 296.622 190.998 294.516 189.54C293.868 189.054 293.22 188.892 292.41 188.892C291.438 189.054 290.628 189.378 289.818 190.026C288.198 191.16 286.74 192.78 285.606 194.4C285.282 194.886 284.472 195.048 283.986 194.724C283.5 194.4 283.338 193.59 283.662 193.104C284.958 191.16 286.578 189.378 288.522 187.92C289.656 186.948 291.114 186.462 292.572 186.3C293.706 186.3 294.84 186.786 295.812 187.434C298.566 189.216 300.51 191.97 300.996 195.21C301.32 196.668 301.158 198.288 300.672 199.746C299.7 202.014 298.08 203.796 295.974 204.93C294.03 205.902 291.924 206.712 289.818 207.36Z" fill="#231F20"/>
<path d="M356.4 380.052C356.4 380.052 345.87 387.504 341.658 388.638C337.446 389.772 322.704 380.052 319.14 379.566C315.576 379.08 305.532 383.454 304.236 381.51C302.94 379.566 308.124 375.516 313.794 374.058C313.794 374.058 301.806 377.946 299.862 377.622C297.918 377.298 295.164 376.326 297.432 373.41C299.7 370.494 309.744 367.902 309.744 367.902C309.744 367.902 295.002 372.762 294.354 370.494C293.706 368.226 299.538 363.042 306.666 362.07C306.666 362.07 293.22 366.282 294.192 362.232C295.164 358.182 311.364 354.942 319.302 357.372C327.24 359.802 338.904 366.768 340.524 366.444C342.144 366.12 344.412 362.556 344.412 362.556L356.4 380.052Z" fill="white"/>
<path d="M340.848 389.934C337.932 389.934 333.072 387.504 326.754 384.264C324.324 382.806 321.732 381.672 319.14 380.862C316.872 381.024 314.766 381.348 312.66 381.996C307.638 383.292 304.56 383.94 303.264 382.32C302.778 381.672 302.616 380.7 302.94 379.89C303.102 379.242 303.588 378.594 304.074 378.108C302.616 378.594 301.158 378.756 299.7 378.756C297.432 378.432 296.136 377.622 295.65 376.326C295.164 375.03 295.488 373.572 296.46 372.438L296.784 372.114C295.974 372.276 295.002 372.114 294.192 371.79C293.706 371.628 293.382 371.142 293.22 370.656C293.058 369.684 293.22 368.55 293.868 367.74C294.678 366.606 295.488 365.634 296.622 364.986C295.65 364.986 294.516 364.662 293.706 364.014C293.058 363.366 292.896 362.556 293.058 361.746C293.544 360.45 294.516 359.316 295.812 358.668C300.834 355.752 312.984 353.97 319.626 356.076C324.486 357.696 329.022 359.802 333.558 362.07C335.664 363.204 338.094 364.176 340.362 364.986C341.658 364.176 342.63 363.042 343.44 361.746C343.602 361.422 344.088 361.26 344.412 361.26C344.736 361.26 345.222 361.422 345.384 361.746L357.21 379.404C357.534 379.89 357.534 380.538 357.048 380.862L356.886 381.024C356.4 381.348 346.032 388.476 341.82 389.772C341.658 389.934 341.334 389.934 340.848 389.934ZM318.816 378.27H319.464C320.922 378.432 323.676 379.728 327.888 381.996C332.424 384.426 339.39 387.99 341.334 387.342C344.25 386.532 351.216 381.996 354.78 379.566L344.574 364.5C343.764 365.796 342.468 366.93 341.01 367.416C339.876 367.578 338.094 366.768 332.748 364.176C328.374 361.908 323.838 359.964 319.14 358.344C312.984 356.562 301.806 358.182 297.27 360.774C295.812 361.584 295.65 362.232 295.65 362.232C296.136 362.718 299.052 362.556 302.454 361.746C303.912 361.26 305.37 360.774 306.828 360.612C307.476 360.45 308.124 360.936 308.286 361.584C308.448 362.232 307.962 362.718 307.476 362.88C306.342 363.204 304.884 363.69 303.102 364.014C300.51 364.986 298.242 366.606 296.46 368.712C296.298 369.036 296.136 369.198 295.974 369.522C298.728 369.36 301.482 368.874 304.074 368.064C306.018 367.416 307.8 366.93 309.744 366.444C310.392 366.282 311.04 366.768 311.202 367.416C311.364 368.064 311.04 368.55 310.392 368.874C308.934 369.36 306.828 370.008 304.56 370.656C302.292 371.304 300.348 372.438 298.728 373.896C298.242 374.706 298.08 375.192 298.08 375.354C298.08 375.516 298.89 376.002 300.348 376.326C301.32 376.488 306.99 374.868 312.012 373.248C312.498 373.086 313.146 372.924 313.632 372.762C314.28 372.6 314.928 372.924 315.09 373.572C315.252 374.22 314.928 374.868 314.28 375.03L312.498 375.516C308.124 377.136 305.208 379.728 305.37 380.538C306.018 380.862 309.906 379.89 312.174 379.242C314.28 378.918 316.548 378.432 318.816 378.27Z" fill="#231F20"/>
<path d="M273.294 206.55C270.702 208.98 267.462 210.276 264.06 210.438C258.066 210.762 256.284 207.036 256.284 207.036" fill="white"/>
<path d="M263.412 211.572C257.256 211.572 255.312 207.684 255.15 207.522C254.826 206.874 255.15 206.226 255.798 205.902C256.446 205.578 257.094 205.902 257.418 206.55C257.418 206.712 258.876 209.466 264.06 209.304C267.138 209.142 270.216 208.008 272.484 205.902C272.97 205.416 273.78 205.416 274.266 205.902C274.752 206.388 274.752 207.198 274.266 207.684C271.512 210.276 267.948 211.734 264.222 211.896L263.412 211.572Z" fill="#231F20"/>
<path d="M152.766 221.94C152.766 221.94 156.816 195.696 152.766 191.646C148.716 187.596 147.582 204.606 147.582 204.606C147.582 204.606 138.024 178.524 133.326 179.334C128.628 180.144 139.158 202.338 139.158 202.338C139.158 202.338 125.874 177.714 121.5 180.144C117.126 182.574 132.678 204.768 132.678 204.768C132.678 204.768 118.26 188.892 115.506 191.808C112.752 194.724 127.98 211.086 127.98 211.086C127.98 211.086 112.59 199.098 110.808 202.5C109.026 205.902 138.672 231.012 138.672 231.012L152.766 221.94Z" fill="white"/>
<path d="M138.51 232.146C138.186 232.146 137.862 231.984 137.7 231.822C137.7 231.822 130.248 225.504 123.12 218.862C108.054 204.768 109.026 202.986 109.512 201.852C109.836 201.204 110.484 200.718 111.132 200.556C113.076 200.07 116.802 201.852 120.366 204.12C115.668 198.288 112.428 192.942 114.372 190.836C114.858 190.35 115.506 190.188 116.154 190.188C118.26 190.188 121.824 192.942 125.226 195.858C121.824 190.188 118.584 183.708 119.232 180.792C119.394 179.982 119.88 179.334 120.528 179.01C121.176 178.686 121.986 178.524 122.634 178.848C125.226 179.658 128.79 184.032 132.03 188.73C130.734 184.68 130.086 180.954 131.058 179.334C131.382 178.686 132.03 178.2 132.678 178.038C137.052 177.39 142.884 190.35 146.448 199.422C147.096 195.372 148.23 190.836 150.336 190.026C151.308 189.702 152.604 190.026 153.252 190.836C157.626 195.048 154.386 217.728 153.738 222.102C153.738 222.426 153.414 222.75 153.252 222.912L139.158 231.984C138.996 232.146 138.834 232.146 138.51 232.146ZM111.78 202.986C112.752 206.064 125.874 218.538 138.672 229.392L151.632 221.13C153.09 211.248 154.548 195.048 151.794 192.456C151.632 192.294 151.632 192.294 151.47 192.132C150.498 192.618 149.04 198.45 148.554 204.606C148.554 205.254 148.068 205.578 147.582 205.74C146.934 205.902 146.448 205.578 146.286 204.93C139.968 187.596 134.784 180.468 133.326 180.468C132.03 181.602 135.108 191.646 139.968 201.852C140.292 202.5 139.968 203.148 139.482 203.472C138.834 203.796 138.186 203.634 137.862 202.986C133.65 195.21 125.712 182.25 122.148 181.278C121.986 181.278 121.824 181.278 121.824 181.278L121.662 181.44C120.852 184.68 128.466 197.154 133.326 204.12C133.65 204.606 133.65 205.416 133.164 205.74C132.678 206.064 132.03 206.064 131.544 205.578C124.902 198.288 117.612 192.294 115.992 192.618C115.506 194.076 121.176 202.176 128.628 210.114C129.114 210.6 129.114 211.248 128.628 211.734C128.142 212.22 127.494 212.22 127.008 211.896C120.366 206.874 113.562 202.824 111.78 202.986Z" fill="#231F20"/>
<path d="M246.24 234.576C246.24 234.576 226.314 245.268 199.26 259.2C188.082 265.032 154.71 217.404 154.71 217.404L132.516 234.576C132.516 234.576 164.268 296.298 187.11 301.158C201.528 304.236 238.95 286.902 238.95 286.902L246.24 234.576Z" fill="#035FAA"/>
<path d="M624.996 392.688C624.996 392.688 640.71 385.722 643.788 383.292C646.866 380.862 638.766 362.556 638.766 362.556L659.988 355.59C659.988 355.59 672.624 384.75 668.898 392.202C665.172 399.654 626.454 408.24 626.454 408.24" fill="white"/>
<path d="M626.292 409.536C625.644 409.536 625.158 409.05 625.158 408.24C625.158 407.754 625.482 407.268 626.13 407.106C641.358 403.704 665.172 396.738 667.764 391.716C670.68 386.208 663.066 365.796 659.34 357.048L640.386 363.204C647.352 379.404 645.57 383.13 644.436 384.102C641.358 386.694 626.13 393.336 625.482 393.66C624.834 393.984 624.186 393.822 623.862 393.174C623.538 392.526 623.7 391.878 624.348 391.554H624.51C628.884 389.61 640.548 384.264 642.978 382.32C644.112 381.348 641.682 372.114 637.632 363.042C637.47 362.718 637.47 362.394 637.632 362.07C637.794 361.746 638.118 361.584 638.442 361.422L659.664 354.618C660.312 354.456 660.96 354.78 661.122 355.266C662.418 358.344 673.92 385.236 669.87 393.012C665.82 400.788 630.666 408.726 626.616 409.698L626.292 409.536Z" fill="#231F20"/>
<path d="M388.152 283.338C387.99 281.718 388.476 279.936 389.61 278.64C390.906 277.668 392.526 277.182 394.146 277.344C395.928 277.182 397.71 277.344 399.33 277.83C400.788 278.64 402.246 279.612 403.38 280.908C406.296 283.5 409.698 285.282 413.424 286.578V286.74L478.548 310.068L499.284 302.13L521.802 323.676C521.802 323.676 483.408 336.312 477.09 337.932C472.392 339.228 401.922 297.918 396.738 297.918C396.09 297.918 395.28 297.918 394.632 297.756C393.984 297.432 393.336 296.784 392.85 296.136C389.772 292.41 388.314 287.874 388.152 283.338Z" fill="white"/>
<path d="M476.766 339.228C473.364 339.228 459.756 332.1 432.864 317.682C417.636 309.42 398.844 299.376 396.414 299.214C395.604 299.214 394.632 299.214 393.822 298.89C392.85 298.404 392.04 297.756 391.554 296.946C388.638 293.058 387.018 288.36 386.856 283.338C386.856 283.176 386.856 283.176 386.856 283.014C386.694 281.07 387.342 279.126 388.638 277.668C390.096 276.534 392.04 275.886 393.984 276.048C395.928 275.886 397.872 276.048 399.654 276.696C400.95 277.182 402.084 277.992 403.056 279.126L404.028 280.098C406.944 282.528 410.184 284.31 413.748 285.444C414.072 285.606 414.234 285.768 414.396 285.93L478.386 308.934L498.636 301.158C499.122 300.996 499.608 301.158 499.932 301.482L522.45 323.028C522.774 323.352 522.936 323.838 522.774 324.162C522.612 324.648 522.288 324.972 521.964 324.972C520.344 325.458 483.408 337.77 477.252 339.39C477.09 339.228 476.928 339.228 476.766 339.228ZM396.576 296.784C399.168 296.784 410.508 302.778 434.16 315.576C450.846 324.648 473.688 336.798 476.766 336.798C481.95 335.34 511.596 325.782 519.372 323.19L498.96 303.588L478.872 311.364C478.548 311.526 478.224 311.526 478.062 311.364L412.938 288.036C412.776 287.874 412.452 287.874 412.29 287.55C408.726 286.254 405.324 284.472 402.408 281.88C402.084 281.556 401.598 281.232 401.274 280.908C400.626 280.098 399.816 279.45 398.844 279.126C397.224 278.64 395.604 278.478 393.984 278.64C392.688 278.478 391.392 278.802 390.258 279.612C389.448 280.746 389.124 282.042 389.286 283.338C389.286 283.5 389.286 283.5 389.286 283.662C389.448 287.874 391.068 292.086 393.498 295.488C393.822 295.974 394.308 296.46 394.794 296.784C395.442 296.784 395.928 296.784 396.576 296.784Z" fill="#231F20"/>
<path d="M412.29 286.578C410.508 284.31 408.888 282.204 407.268 279.936C406.944 279.45 406.458 278.964 405.972 278.478C405.324 277.992 404.514 277.506 403.542 277.182C400.14 275.886 396.576 275.076 393.012 274.752C392.526 274.752 392.04 274.752 391.716 275.076C391.716 275.238 391.716 275.562 391.716 275.724C392.202 276.696 393.012 277.506 393.984 277.992C396.414 279.288 398.844 280.422 401.436 281.394C401.112 283.662 401.274 286.092 401.922 288.36C402.57 290.628 404.352 292.572 406.62 293.382" fill="white"/>
<path d="M406.62 294.84H406.296C403.704 293.868 401.598 291.762 400.788 289.17C400.14 287.064 399.978 284.796 400.14 282.69C397.872 281.718 395.604 280.746 393.336 279.45C392.04 278.802 391.068 277.83 390.42 276.534C390.258 276.048 390.258 275.562 390.42 275.076C390.906 274.266 391.878 273.78 392.85 273.942C396.576 274.266 400.14 275.238 403.542 276.372C404.514 276.696 405.486 277.182 406.296 277.83C406.782 278.316 407.268 278.802 407.754 279.288L412.938 285.93C413.424 286.416 413.424 287.226 412.776 287.712C412.29 288.198 411.48 288.198 410.994 287.55C410.994 287.55 410.994 287.388 410.832 287.388L405.648 280.746C405.324 280.26 405 279.936 404.514 279.45C403.866 278.964 403.218 278.64 402.408 278.478C399.33 277.344 395.928 276.534 392.688 276.21C393.012 276.534 393.498 276.858 393.984 277.182C396.252 278.478 398.682 279.612 401.274 280.584C401.76 280.746 402.084 281.232 402.084 281.88C401.76 283.986 401.922 286.254 402.57 288.36C403.056 290.304 404.514 291.924 406.458 292.572C407.106 292.734 407.43 293.544 407.268 294.03C407.592 294.516 407.106 294.84 406.62 294.84Z" fill="#231F20"/>
<path d="M564.894 221.616C567.972 219.834 571.536 218.538 575.1 217.728C583.686 216.108 592.434 218.052 599.562 223.236C603.45 222.75 605.07 223.074 610.416 227.772C621.756 240.084 629.694 281.07 614.466 292.248C606.366 298.242 564.894 288.846 554.85 287.874C538.65 286.254 542.7 243.972 554.364 230.85C557.28 226.962 560.844 223.884 564.894 221.616Z" fill="#231F20"/>
<path d="M603.936 295.488C594.216 295.488 580.284 293.22 566.352 290.952C561.492 290.142 557.28 289.332 554.85 289.17C550.638 288.684 547.236 285.768 545.292 280.746C540.108 267.462 544.482 240.408 553.554 230.202C556.47 226.476 560.034 223.398 564.084 220.968L564.246 220.806C567.486 218.862 571.05 217.566 574.776 216.918C583.524 215.298 592.596 217.242 599.886 222.264C603.936 221.778 606.042 222.426 611.226 227.124C619.488 236.196 625.32 258.39 623.862 274.59C623.052 283.5 619.974 289.98 615.276 293.544C613.17 294.84 609.12 295.488 603.936 295.488ZM565.704 222.588L565.542 222.75C561.654 225.018 558.252 227.934 555.498 231.498C546.75 241.38 542.538 266.976 547.56 279.612C549.18 283.824 551.772 286.254 555.174 286.578C557.604 286.74 561.654 287.55 566.838 288.36C582.228 290.952 608.148 295.488 613.818 291.114C618.03 288.036 620.622 282.042 621.432 273.78C622.89 258.39 617.22 236.682 609.444 228.258C604.422 223.884 603.126 223.722 599.724 224.208C599.4 224.208 599.076 224.208 598.914 224.046C592.11 219.186 583.524 217.242 575.424 218.862C572.022 219.672 568.782 220.806 565.704 222.588Z" fill="#231F20"/>
<path d="M531.846 391.392L551.772 286.416L609.444 290.952L609.12 419.904L531.846 391.392Z" fill="#231F20"/>
<path d="M609.12 421.038C608.958 421.038 608.796 421.038 608.634 421.038L531.36 392.526C530.874 392.364 530.55 391.716 530.55 391.068L550.476 286.092C550.638 285.444 551.124 285.12 551.772 285.12L609.282 289.656C609.93 289.656 610.416 290.304 610.416 290.952L610.092 419.904C610.092 420.228 609.93 420.714 609.606 420.876C609.606 421.038 609.282 421.038 609.12 421.038ZM533.304 390.582L607.986 418.122L608.31 292.086L552.906 287.712L533.304 390.582Z" fill="#231F20"/>
<path d="M609.12 421.038C608.958 421.038 608.796 421.038 608.634 421.038L531.36 392.526C530.874 392.364 530.55 391.716 530.55 391.23L550.638 286.254C550.8 285.606 551.286 285.282 551.934 285.282L609.444 289.818C610.092 289.818 610.578 290.304 610.578 290.952L610.254 419.742C610.254 420.066 610.092 420.552 609.768 420.714C609.444 421.038 609.282 421.038 609.12 421.038ZM533.142 390.582L607.986 418.122L608.31 292.086L552.906 287.712L533.142 390.582Z" fill="white"/>
<path d="M609.12 422.334C608.796 422.334 608.472 422.334 608.31 422.172L531.036 393.66C529.902 393.336 529.254 392.202 529.416 391.068L549.504 286.092C549.666 284.958 550.8 283.986 552.096 284.148L609.606 288.684C610.902 288.846 611.874 289.818 611.874 291.114L611.55 420.066C611.55 421.2 610.416 422.334 609.12 422.334ZM607.986 419.418L609.12 419.742V418.446C608.958 418.608 608.796 418.932 608.634 419.094C608.472 419.256 608.148 419.418 607.986 419.418ZM534.6 389.772L606.69 416.34L607.014 293.058L553.716 288.846L534.6 389.772ZM532.008 390.744L531.846 391.392L532.494 391.554L532.332 391.392C532.17 391.23 532.008 391.068 532.008 390.744ZM608.634 290.952C608.958 291.114 609.282 291.276 609.444 291.6V290.952H608.634ZM551.934 286.416L551.772 287.226C551.934 286.902 552.258 286.578 552.582 286.416H551.934Z" fill="#231F20"/>
<path d="M616.086 397.386C616.086 397.386 625.482 569.268 632.448 633.258L601.506 638.118C601.506 638.118 584.82 530.064 573.48 455.058C571.698 455.382 568.296 456.192 567.162 455.868L549.18 638.118L514.674 633.582L524.88 391.23L616.086 397.386Z" fill="white"/>
<path d="M549.18 639.414L514.512 634.878C513.864 634.716 513.378 634.23 513.54 633.582L523.746 391.23C523.746 390.906 523.908 390.582 524.07 390.42C524.394 390.258 524.556 390.096 524.88 390.096L616.248 396.09C616.896 396.09 617.382 396.576 617.382 397.224C617.544 399.006 626.778 569.754 633.744 633.096C633.744 633.744 633.42 634.392 632.772 634.392L601.83 639.252C601.506 639.252 601.182 639.252 600.858 639.09C600.534 638.928 600.372 638.604 600.372 638.28C600.21 637.146 583.686 530.55 572.508 456.516C571.212 456.84 569.754 457.002 568.296 457.164L550.314 638.28C550.314 638.604 550.152 638.928 549.828 639.09C549.666 639.252 549.504 639.414 549.18 639.414ZM515.97 632.61L548.208 636.822L566.028 455.706C566.028 455.382 566.19 455.058 566.514 454.896C566.838 454.734 567.162 454.734 567.486 454.734C569.268 454.734 570.888 454.572 572.508 454.086L573.156 453.924C573.804 453.762 574.452 454.248 574.614 454.896C585.306 524.718 600.696 624.672 602.478 636.822L631.152 632.286C624.51 570.726 615.762 413.1 614.952 398.52L526.014 392.688L515.97 632.61Z" fill="#231F20"/>
<path d="M665.82 360.774L624.186 375.354L627.912 437.886L587.736 436.752L595.836 296.46L564.57 283.176C564.57 283.5 559.062 301.32 558.09 311.04C555.174 343.764 551.772 416.826 549.18 437.886L509.976 425.898C509.976 425.898 514.512 378.756 526.5 293.544C533.142 283.176 553.068 281.718 562.95 282.366C604.746 284.796 590.166 284.796 589.356 284.796C590.166 284.796 622.566 284.958 637.308 304.884C652.374 324.972 665.82 360.774 665.82 360.774Z" fill="#035FAA"/>
<path d="M565.218 283.176L563.112 302.616C563.112 302.616 563.76 313.794 575.91 311.85C583.2 310.716 589.68 306.342 593.406 299.862C594.216 291.924 594.864 283.986 595.512 275.886C596.322 266.976 598.104 257.58 597.78 248.832C588.708 252.396 576.558 241.704 573.156 234.252C572.022 239.112 573.48 244.296 577.044 247.698C571.698 246.24 567.324 242.352 565.38 237.168C565.218 236.844 558.738 243.81 558.252 244.62C556.47 247.698 555.174 250.938 554.364 254.34C553.068 260.334 552.096 269.406 555.498 274.914C560.034 282.204 565.218 283.176 565.218 283.176Z" fill="white"/>
<path d="M573.318 313.308C570.726 313.47 568.134 312.498 566.028 310.878C563.598 308.772 562.14 305.856 561.978 302.616V302.454L563.922 284.148C559.872 282.528 556.632 279.45 554.526 275.724C550.476 269.082 552.258 258.552 553.23 254.34C554.04 250.776 555.336 247.374 557.28 244.134C557.28 243.972 563.922 235.872 565.542 236.034C566.028 236.034 566.352 236.358 566.514 236.844C567.81 240.246 570.24 243.162 573.48 244.944C571.698 241.542 571.212 237.654 572.022 234.09C572.184 233.604 572.508 233.28 572.994 233.118C573.48 233.118 573.966 233.28 574.29 233.766C577.53 240.57 589.194 250.938 597.456 247.698C597.78 247.536 598.266 247.536 598.59 247.86C598.914 248.022 599.076 248.508 599.076 248.832C599.076 254.988 598.59 261.306 597.618 267.462C597.294 270.378 596.97 273.294 596.646 276.048C595.998 283.986 595.188 292.086 594.54 300.024C594.54 300.186 594.54 300.348 594.378 300.51C590.49 307.314 583.686 312.012 576.072 313.146C575.262 313.146 574.29 313.308 573.318 313.308ZM564.408 302.616C564.57 305.046 565.866 307.476 567.648 309.096C570.078 310.716 572.994 311.364 575.91 310.716C582.714 309.582 588.708 305.532 592.272 299.538C593.082 291.6 593.73 283.824 594.378 275.886C594.702 272.97 595.026 270.054 595.35 267.138C596.16 261.63 596.646 256.122 596.808 250.452C592.758 251.424 587.898 250.128 582.876 246.726C579.474 244.458 576.558 241.542 574.128 238.14C574.29 241.542 575.748 244.62 578.016 246.888C578.502 247.374 578.502 248.184 578.016 248.67C577.692 248.994 577.206 249.156 576.882 248.994C571.698 247.536 567.324 244.134 565.056 239.274C563.274 241.056 559.872 244.782 559.386 245.43C557.604 248.346 556.308 251.424 555.66 254.826C554.85 258.714 553.068 268.596 556.632 274.428C560.682 281.07 565.542 282.042 565.542 282.042C566.19 282.204 566.514 282.69 566.514 283.338L564.408 302.616Z" fill="#231F20"/>
<path d="M593.73 262.44C594.216 260.982 595.188 259.848 596.322 259.038C597.456 258.39 598.752 257.742 600.21 257.58C600.858 257.418 601.668 257.256 602.478 257.418C602.964 257.58 603.45 257.742 603.936 258.066C605.07 258.714 605.88 259.686 606.204 260.982C606.366 261.954 606.366 262.926 606.042 263.898C605.88 265.032 605.394 266.004 604.908 266.976C603.936 268.92 602.154 270.378 599.886 271.026C597.78 271.674 595.512 271.35 593.568 270.378" fill="white"/>
<path d="M597.618 272.484C595.998 272.484 594.378 271.998 592.92 271.35C592.272 271.026 592.11 270.378 592.434 269.73C592.758 269.082 593.406 268.92 594.054 269.244C597.456 271.188 601.668 270.054 603.612 266.652C603.612 266.652 603.612 266.49 603.774 266.49C604.26 265.68 604.584 264.708 604.746 263.736C604.908 262.926 605.07 262.116 604.908 261.306C604.584 260.334 603.936 259.686 603.126 259.2C602.802 259.038 602.478 258.876 602.154 258.714C601.668 258.714 601.02 258.714 600.534 258.876C599.4 259.2 598.104 259.524 597.132 260.172C596.16 260.82 595.35 261.792 595.026 263.088C594.864 263.736 594.054 264.06 593.568 263.898C592.92 263.736 592.596 262.926 592.758 262.44C593.406 260.82 594.378 259.362 595.836 258.39C597.132 257.58 598.59 257.094 600.048 256.77C601.02 256.446 601.83 256.446 602.802 256.608C603.45 256.77 604.098 257.094 604.584 257.418C605.88 258.228 606.852 259.524 607.338 260.982C607.662 262.116 607.5 263.412 607.176 264.546C607.014 265.68 606.528 266.814 606.042 267.948C604.908 270.216 602.802 271.836 600.372 272.646C599.562 272.322 598.59 272.484 597.618 272.484Z" fill="#231F20"/>
<path d="M564.732 290.952C564.732 290.952 572.508 294.03 578.178 289.494C581.418 287.064 583.524 283.5 583.848 279.45C583.848 279.45 572.994 285.93 565.218 283.662L564.732 290.952Z" fill="#231F20"/>
<path d="M570.564 293.22C568.458 293.22 566.19 292.896 564.246 292.086C563.76 291.924 563.436 291.438 563.436 290.79L563.922 283.5C563.922 283.176 564.084 282.852 564.408 282.528C564.732 282.366 565.056 282.204 565.38 282.366C572.508 284.472 582.876 278.316 583.038 278.316C583.362 278.154 583.848 278.154 584.334 278.316C584.658 278.478 584.982 278.964 584.982 279.288C584.982 279.45 584.982 285.282 578.826 290.304C576.558 292.248 573.642 293.22 570.564 293.22ZM566.028 290.142C567.972 290.79 573.318 291.924 577.368 288.522C579.636 286.74 581.418 284.472 582.228 281.718C578.826 283.338 572.184 286.092 566.352 285.12L566.028 290.142Z" fill="#231F20"/>
<path d="M565.704 252.558C565.704 252.558 558.252 261.144 559.548 262.926C560.844 264.708 565.056 264.222 565.056 264.222" fill="white"/>
<path d="M563.598 265.518C561.654 265.68 559.872 265.032 558.576 263.736C557.28 261.954 559.386 258.066 564.732 251.91C565.218 251.424 565.866 251.424 566.514 251.748C567 252.234 567 252.882 566.676 253.53C563.436 257.256 560.682 261.306 560.682 262.44C561.33 263.25 563.598 263.25 565.056 263.088C565.704 262.926 566.352 263.412 566.352 264.06C566.514 264.708 566.028 265.356 565.38 265.356C564.732 265.356 564.084 265.356 563.598 265.518Z" fill="#231F20"/>
<path d="M577.6 254.894C578.015 253.713 577.668 252.514 576.824 252.217C575.98 251.92 574.959 252.638 574.543 253.819C574.128 255.001 574.475 256.199 575.319 256.496C576.163 256.793 577.184 256.076 577.6 254.894Z" fill="#231F20"/>
<path d="M560.392 253.117C560.808 251.935 560.461 250.736 559.617 250.44C558.773 250.143 557.752 250.86 557.336 252.042C556.92 253.223 557.268 254.422 558.112 254.718C558.956 255.015 559.977 254.298 560.392 253.117Z" fill="#231F20"/>
<path d="M556.956 267.948C556.956 267.948 561.492 277.02 572.346 270.216Z" fill="white"/>
<path d="M564.894 273.942C563.922 273.942 563.112 273.78 562.14 273.618C559.386 272.808 557.28 271.026 555.822 268.596C555.498 267.948 555.822 267.3 556.308 266.976C556.956 266.652 557.604 266.976 557.928 267.462C559.062 269.244 560.682 270.702 562.788 271.35C565.38 271.998 568.296 271.35 571.698 269.244C572.346 268.92 572.994 269.244 573.318 269.73C573.642 270.216 573.48 270.864 572.994 271.35C570.726 272.808 567.81 273.78 564.894 273.942Z" fill="#231F20"/>
<path d="M626.13 410.832C625.482 410.832 624.996 410.346 624.834 409.698L620.298 311.85C620.298 311.202 620.784 310.554 621.432 310.554C622.08 310.554 622.728 311.04 622.728 311.688L627.264 409.536C627.426 410.346 626.94 410.832 626.13 410.832Z" fill="#231F20"/>
<path d="M545.778 283.338L491.994 300.672L506.25 337.446L553.23 320.274L545.778 283.338Z" fill="#035FAA"/>
<path d="M629.208 395.118C629.208 395.118 612.036 398.034 612.522 401.112C613.008 402.894 614.466 404.19 616.41 404.19C616.41 404.19 610.902 406.134 611.226 408.564C611.55 410.994 616.734 410.832 616.734 410.832C616.734 410.832 613.17 412.29 613.656 414.396C614.142 416.664 621.918 415.692 621.918 415.692C621.918 415.692 615.6 416.988 616.734 419.742C617.868 422.496 628.56 419.256 630.18 417.798C631.8 416.34 632.61 397.224 629.208 395.118Z" fill="white"/>
<path d="M619.488 421.848C618.84 421.848 618.192 421.848 617.706 421.686C616.734 421.524 615.924 420.876 615.6 420.066C615.276 419.256 615.276 418.446 615.762 417.636C615.924 417.312 616.086 417.15 616.248 416.988C614.466 416.826 612.846 416.178 612.522 414.72C612.198 413.586 612.522 412.614 613.332 411.804C611.712 411.48 610.254 410.508 610.092 408.888C609.93 407.268 611.55 405.486 613.332 404.514C612.36 403.866 611.712 402.732 611.55 401.598C611.388 400.95 611.55 400.464 611.874 399.978C613.98 397.062 625.644 394.794 629.046 394.308C629.37 394.308 629.694 394.308 629.856 394.47C630.504 394.794 632.124 395.766 632.61 402.894C632.934 407.754 632.772 417.474 630.99 418.932C627.588 420.714 623.538 421.686 619.488 421.848ZM621.918 414.396C622.566 414.396 623.052 415.044 623.052 415.692C623.052 416.178 622.566 416.664 622.08 416.826C620.622 417.15 618.192 417.96 617.706 418.77C617.706 418.932 617.706 419.094 617.706 419.094C618.03 419.256 618.354 419.418 618.678 419.418C622.404 419.418 626.13 418.446 629.37 416.826C630.18 415.53 630.99 404.676 629.532 398.844C629.37 398.034 629.046 397.224 628.722 396.576C621.27 397.872 614.466 399.978 613.656 401.112C613.98 402.246 615.114 403.056 616.248 403.056C616.896 403.056 617.382 403.704 617.382 404.352C617.382 404.838 617.058 405.324 616.572 405.486C614.466 406.296 612.036 407.754 612.198 408.564C612.36 409.374 614.79 409.698 616.41 409.698C617.058 409.698 617.544 410.022 617.706 410.67C617.868 411.318 617.544 411.804 616.896 412.128C616.248 412.452 614.466 413.424 614.628 414.234C615.276 414.558 618.678 414.72 621.918 414.396Z" fill="#231F20"/>
<path d="M628.722 393.66C628.074 389.934 619.812 388.152 619.002 390.582C618.192 393.012 629.37 397.386 628.722 393.66Z" fill="white"/>
<path d="M626.94 396.414C624.186 396.252 621.432 395.28 619.164 393.498C617.544 392.202 617.544 391.068 617.706 390.258C618.192 388.8 619.812 388.152 622.08 388.314C624.996 388.476 629.37 390.258 629.856 393.498C630.018 394.47 629.694 395.442 628.884 395.928C628.236 396.252 627.588 396.414 626.94 396.414ZM620.136 391.068C621.108 392.04 622.404 392.85 623.7 393.336C624.834 393.822 626.13 394.146 627.426 393.984C627.264 392.688 625.158 391.392 622.728 390.906C621.918 390.582 620.946 390.744 620.136 391.068Z" fill="#231F20"/>
<path d="M549.666 343.44C548.856 343.44 548.37 342.792 548.532 342.144L551.124 319.14C551.286 318.492 551.772 318.006 552.42 318.006C553.068 318.168 553.554 318.654 553.554 319.302L550.962 342.306C550.8 342.954 550.314 343.44 549.666 343.44Z" fill="#231F20"/>
<path d="M469.962 412.452L464.778 410.022L373.572 412.614C370.494 430.11 372.924 472.23 377.622 518.724C377.622 520.668 368.874 646.866 368.874 646.866L406.458 648.486L429.462 524.394C430.11 522.45 430.272 520.344 430.11 518.238L431.892 473.202L438.372 517.266C439.02 519.534 439.182 522.126 438.696 524.394L435.456 644.436L473.04 646.866L487.944 516.942C488.754 514.026 488.592 511.11 487.62 508.194L469.962 412.452Z" fill="#231F20"/>
<path d="M406.458 649.62L368.874 648C368.226 648 367.74 647.352 367.74 646.704C370.818 603.126 376.488 520.344 376.488 518.724C373.248 488.43 368.55 433.998 372.438 412.452C372.6 411.966 373.086 411.48 373.572 411.48L464.94 408.888C465.102 408.888 465.264 408.888 465.426 409.05L470.61 411.48C470.934 411.642 471.258 411.966 471.258 412.29L488.754 507.708C489.726 510.624 489.888 513.864 489.078 516.942L474.174 646.866C474.174 647.514 473.526 648 472.878 648L435.294 645.57C434.646 645.57 434.16 644.922 434.16 644.274L437.4 524.232V524.07C437.886 521.964 437.724 519.696 437.076 517.428V517.266L432.54 486.162L431.244 517.914C431.406 520.182 431.244 522.45 430.596 524.556L407.754 648.486C407.592 649.134 407.106 649.62 406.458 649.62ZM370.17 645.57L405.486 647.028L428.166 523.908C428.814 521.964 428.976 520.02 428.814 518.076V517.914L430.596 472.878C430.596 472.23 431.244 471.744 431.892 471.744C432.54 471.744 432.864 472.23 433.026 472.716L439.506 516.78C440.316 519.21 440.316 521.802 439.83 524.394L436.59 643.14L471.906 645.408L486.648 516.618V516.456C487.296 513.864 487.296 511.11 486.324 508.518V508.356L468.828 413.424L464.454 411.318L374.544 413.91C371.952 430.11 373.572 467.208 378.756 518.724C378.918 520.506 371.142 631.8 370.17 645.57Z" fill="#231F20"/>
<path d="M416.988 256.77C415.53 255.96 412.938 249.318 411.804 247.536C408.564 242.514 406.944 236.52 407.268 230.526C407.916 225.018 410.832 219.996 415.206 216.432C417.474 214.326 420.39 213.192 423.468 213.192C424.44 213.354 425.25 213.354 426.222 213.192C427.032 212.868 427.68 212.544 428.166 211.896C436.59 204.93 445.5 202.986 456.192 205.416C458.946 205.902 461.538 207.036 463.968 208.494C468.018 211.734 470.286 216.594 470.124 221.616C470.124 225.342 469.476 231.498 467.046 234.414C465.75 236.034 463.644 235.872 462.186 237.006C459.27 239.274 456.84 243.162 454.086 245.754C444.204 255.15 430.272 263.412 416.988 256.77Z" fill="#231F20"/>
<path d="M427.194 260.496C423.468 260.496 419.742 259.686 416.502 257.904H416.34C415.044 257.256 413.91 254.988 412.128 251.262C411.48 249.966 410.994 248.832 410.67 248.346C407.268 243 405.648 236.844 405.972 230.688C406.62 224.856 409.698 219.51 414.234 215.784C416.664 213.516 419.904 212.22 423.306 212.22L424.116 212.382C424.602 212.544 425.25 212.544 425.736 212.382C426.222 212.22 426.708 211.896 427.194 211.41C435.942 204.12 445.176 202.014 456.354 204.606C459.27 205.092 462.024 206.226 464.454 207.846C468.828 211.248 471.258 216.432 471.096 222.102C471.096 223.074 471.096 231.66 467.694 235.71C466.884 236.682 465.75 237.33 464.454 237.654C463.806 237.816 463.32 238.14 462.672 238.464C461.052 239.922 459.432 241.38 458.136 243.162C457.002 244.62 455.868 245.916 454.734 247.05C448.902 252.72 438.534 260.496 427.194 260.496ZM417.474 255.636C431.244 262.602 445.824 252.072 453.114 245.268C454.248 244.134 455.382 242.838 456.354 241.542C457.812 239.598 459.432 237.978 461.214 236.358C461.862 235.872 462.672 235.548 463.644 235.224C464.454 235.062 465.264 234.576 465.912 233.928C467.856 231.66 468.828 225.99 468.828 221.94C468.99 217.242 466.884 212.706 463.158 209.628C460.89 208.17 458.46 207.198 455.868 206.712C445.5 204.282 436.914 206.226 428.976 212.868C428.328 213.516 427.518 214.002 426.546 214.326C425.736 214.488 424.926 214.488 424.116 214.326H423.468C420.714 214.326 418.122 215.46 416.178 217.242C411.966 220.482 409.374 225.18 408.726 230.364C408.402 236.034 410.022 241.704 413.1 246.564C413.748 247.536 414.234 248.67 414.72 249.804C415.206 252.072 416.34 254.016 417.474 255.636Z" fill="#231F20"/>
<path d="M440.478 279.612C440.478 279.612 392.526 272.16 381.024 296.622C368.388 323.514 369.036 418.608 369.036 418.608L473.364 414.72L470.124 355.752L506.736 355.59C506.736 355.59 490.536 301.644 476.604 291.6C462.672 281.556 440.478 279.612 440.478 279.612Z" fill="#035FAA"/>
<path d="M389.61 286.74L356.724 311.85L392.526 343.44L417.474 323.352L389.61 286.74Z" fill="#035FAA"/>
<path d="M427.194 346.032C427.194 346.032 449.55 361.584 466.56 370.818C471.096 373.248 469.962 355.266 469.962 355.266L503.658 355.752C503.658 355.752 503.658 407.106 489.402 416.34C475.146 425.574 427.68 367.74 427.68 367.74L427.194 346.032Z" fill="white"/>
<path d="M486 418.446C468.504 418.446 431.244 374.058 426.87 368.55C426.708 368.388 426.546 368.064 426.546 367.74L426.06 346.032C426.06 345.546 426.222 345.222 426.708 344.898C427.032 344.736 427.518 344.736 428.004 344.898C428.166 345.06 450.36 360.612 467.208 369.684H467.37C468.504 369.198 469.152 362.232 468.666 355.104C468.666 354.78 468.828 354.456 468.99 354.132C469.152 353.97 469.476 353.808 469.8 353.808L503.496 354.294C504.144 354.294 504.63 354.78 504.63 355.59C504.63 357.696 504.468 407.754 489.888 417.15C488.916 417.96 487.458 418.446 486 418.446ZM428.976 367.416C430.758 369.684 441.936 382.644 454.248 394.632C471.42 411.318 483.732 418.608 488.916 415.206C501.228 407.268 502.362 364.662 502.524 356.886L471.42 356.562C471.582 360.936 471.744 370.17 468.828 371.952C468.018 372.438 467.046 372.438 466.236 371.952C452.142 364.338 434.484 352.512 428.652 348.462L428.976 367.416Z" fill="#231F20"/>
<path d="M407.106 335.016L456.354 379.08C457.974 380.538 458.136 383.13 456.678 384.75L390.258 459.108C388.8 460.728 386.208 460.89 384.588 459.432L335.34 415.368C333.72 413.91 333.558 411.318 335.016 409.698L401.436 335.34C402.732 333.558 405.324 333.396 407.106 335.016Z" fill="white"/>
<path d="M387.18 461.7C385.884 461.7 384.588 461.214 383.616 460.404L334.368 416.34C332.262 414.396 332.1 410.994 333.882 408.888L400.302 334.53C402.246 332.424 405.486 332.1 407.754 334.044L457.164 378.108C459.27 380.052 459.594 383.292 457.65 385.56L391.23 459.918C390.258 460.89 388.962 461.538 387.666 461.7H387.18ZM404.352 335.178C403.542 335.178 402.732 335.502 402.246 336.15L335.826 410.508C334.854 411.642 334.854 413.424 335.988 414.558L385.398 458.622C385.884 459.108 386.694 459.432 387.504 459.27C388.314 459.27 388.962 458.946 389.448 458.298L455.868 383.94C456.354 383.454 456.678 382.644 456.516 381.834C456.516 381.024 456.192 380.376 455.544 379.89L406.296 335.826C405.648 335.34 405 335.178 404.352 335.178Z" fill="#231F20"/>
<path d="M404.352 332.262L453.6 376.326C455.22 377.784 455.382 380.376 453.924 381.996L387.504 456.354C386.046 457.974 383.454 458.136 381.834 456.678L332.586 412.614C330.966 411.156 330.804 408.564 332.262 406.944L398.682 332.586C400.14 330.966 402.732 330.804 404.352 332.262Z" fill="white"/>
<path d="M384.588 458.946C383.292 458.946 381.996 458.46 381.024 457.65L331.776 413.586C329.67 411.642 329.346 408.402 331.29 406.134L397.71 331.776C399.654 329.67 402.894 329.346 405.162 331.29L454.572 375.354C456.678 377.298 456.84 380.7 454.896 382.806L388.476 457.164C387.504 458.298 386.046 458.946 384.588 458.946ZM401.76 332.424H401.598C400.788 332.424 400.14 332.748 399.654 333.396L333.234 407.754C332.262 408.888 332.262 410.67 333.396 411.804L382.644 455.868C383.778 456.84 385.56 456.84 386.694 455.706L453.114 381.348C454.086 380.214 454.086 378.432 452.952 377.298L403.542 333.234C403.056 332.748 402.408 332.424 401.76 332.424Z" fill="#231F20"/>
<path d="M452.142 275.724L454.41 294.354C454.41 294.354 452.952 303.102 440.154 301.806C427.356 300.51 424.44 292.086 424.44 292.086L421.524 257.256C421.524 257.256 439.668 244.458 434.484 224.856C443.88 231.174 455.544 233.28 466.398 230.526C466.398 230.526 468.99 259.686 468.666 269.568C468.018 274.59 452.142 275.886 452.142 275.724Z" fill="white"/>
<path d="M442.908 303.102C441.936 303.102 441.126 303.102 440.154 302.94C426.708 301.482 423.63 292.734 423.468 292.41C423.468 292.248 423.468 292.248 423.468 292.086L420.552 257.256C420.552 256.77 420.714 256.446 421.038 256.122C421.2 255.96 438.372 243.486 433.512 225.018C433.35 224.37 433.674 223.722 434.484 223.56C434.808 223.398 435.132 223.56 435.456 223.722C444.528 229.878 455.706 231.822 466.398 229.23C466.722 229.068 467.046 229.23 467.37 229.392C467.694 229.554 467.856 229.878 467.856 230.364C468.018 231.498 470.448 259.686 470.124 269.406C469.476 274.752 458.136 276.372 453.762 276.858L455.868 294.192C455.868 294.354 455.868 294.354 455.868 294.516C455.544 294.678 454.086 303.102 442.908 303.102ZM425.736 291.762C426.222 292.734 429.3 299.376 440.316 300.51C451.008 301.644 452.952 295.326 453.114 294.354L451.008 276.21V276.048C450.846 275.4 451.332 274.752 451.98 274.59H452.142C458.298 274.104 467.208 272.16 467.532 269.244C467.694 260.982 465.912 237.816 465.426 231.984C455.544 234.09 445.176 232.47 436.266 227.286C439.02 243.972 425.736 255.474 422.82 257.742L425.736 291.762Z" fill="#231F20"/>
<path d="M427.356 255.312C425.412 251.1 420.876 248.832 416.502 249.804C411.156 251.262 411.966 257.418 414.234 261.144C416.988 265.842 423.144 267.462 427.842 264.708H428.004" fill="white"/>
<path d="M422.658 267.3C421.686 267.3 420.876 267.138 419.904 266.976C416.988 266.166 414.558 264.384 413.1 261.792C411.642 259.362 410.508 255.474 411.804 252.396C412.614 250.452 414.234 249.156 416.178 248.67C421.2 247.536 426.384 250.128 428.49 254.826C428.652 255.474 428.49 256.122 427.842 256.446C427.194 256.608 426.546 256.446 426.222 255.798C424.602 252.234 420.714 250.29 416.826 251.1C415.53 251.424 414.558 252.234 414.072 253.368C413.424 255.798 413.91 258.39 415.206 260.658C417.636 264.87 422.982 266.166 427.194 263.736C427.68 263.412 428.49 263.412 428.814 264.06C429.138 264.546 429.138 265.356 428.49 265.68L428.328 265.842C426.708 266.814 424.764 267.3 422.658 267.3Z" fill="#231F20"/>
<path d="M455.544 244.134C455.544 244.134 461.376 252.882 460.08 254.826C458.784 256.77 454.41 256.284 454.41 256.284" fill="white"/>
<path d="M455.382 257.742C454.896 257.742 454.41 257.742 454.248 257.742C453.6 257.58 453.114 256.932 453.276 256.284C453.438 255.636 453.924 255.312 454.41 255.312C455.868 255.474 458.46 255.15 459.108 254.34C459.27 253.368 457.164 248.994 454.572 244.944C454.248 244.458 454.41 243.648 454.896 243.324C455.382 243 456.192 243.162 456.516 243.648C458.946 247.212 462.672 253.53 461.214 255.798C459.918 257.418 457.164 257.742 455.382 257.742Z" fill="#231F20"/>
<path d="M444.665 246.064C445.559 246.025 446.214 244.399 446.128 242.433C446.042 240.466 445.247 238.904 444.353 238.943C443.459 238.982 442.805 240.608 442.891 242.575C442.977 244.541 443.772 246.103 444.665 246.064Z" fill="#231F20"/>
<path d="M459.893 246.067C460.787 246.028 461.442 244.402 461.355 242.435C461.269 240.469 460.475 238.907 459.581 238.946C458.687 238.985 458.033 240.611 458.119 242.577C458.205 244.544 458.999 246.106 459.893 246.067Z" fill="#231F20"/>
<path d="M452.142 275.724C452.142 275.724 445.176 277.83 436.104 273.456C436.104 273.456 440.802 286.254 453.276 285.768L452.142 275.724Z" fill="#231F20"/>
<path d="M452.952 287.064C440.154 287.064 435.132 273.942 435.132 273.942C434.97 273.456 435.132 272.97 435.456 272.646C435.78 272.322 436.428 272.16 436.752 272.484C445.176 276.696 451.818 274.752 451.818 274.752C452.142 274.59 452.466 274.752 452.79 274.914C453.114 275.076 453.276 275.4 453.276 275.724L454.41 285.768C454.41 286.092 454.41 286.416 454.086 286.74C453.924 287.064 453.6 287.226 453.276 287.226L452.952 287.064ZM438.696 275.724C440.64 278.964 444.852 283.986 451.98 284.472L451.17 277.182C446.958 277.83 442.584 277.344 438.696 275.724Z" fill="#231F20"/>
<path d="M462.024 261.144C462.024 261.144 457.812 266.49 448.902 263.736Z" fill="white"/>
<path d="M453.924 265.68C452.142 265.68 450.36 265.356 448.578 264.87C447.93 264.708 447.606 264.06 447.768 263.412C447.93 262.764 448.578 262.44 449.226 262.602C457.326 265.194 460.89 260.496 461.052 260.496C461.538 260.01 462.186 259.848 462.834 260.334C463.32 260.82 463.482 261.468 462.996 262.116C460.566 264.384 457.326 265.842 453.924 265.68Z" fill="#231F20"/>
<path d="M406.296 397.71L405.486 398.682L404.676 398.196L406.296 397.71Z" fill="white"/>
<path d="M405.486 399.978C405.324 399.978 405.162 399.978 405 399.816L404.19 399.33C403.542 399.006 403.38 398.358 403.704 397.71C403.866 397.386 404.028 397.224 404.352 397.224C404.352 397.224 405 396.9 405.972 396.576C406.458 396.414 407.106 396.576 407.43 397.062C407.754 397.548 407.754 398.034 407.43 398.52L406.62 399.492C406.296 399.816 405.81 399.978 405.486 399.978Z" fill="#231F20"/>
<path d="M416.34 401.274C420.228 400.14 424.926 397.386 424.278 394.308C423.792 391.878 413.262 395.118 407.916 397.062L407.106 396.738L370.332 357.534C375.192 351.054 380.538 344.898 386.532 339.39L360.45 315.414C351.54 326.592 343.278 338.256 335.826 350.568C324.486 369.36 392.202 416.178 392.202 416.178C392.202 416.178 412.29 433.998 415.53 433.998C418.77 433.998 432.216 419.58 433.35 414.558C433.836 411.318 424.116 405.486 416.34 401.274Z" fill="white"/>
<path d="M415.368 434.97C411.804 434.97 395.928 421.038 391.23 416.826C388.476 415.044 322.866 369.198 334.53 349.758C341.982 337.446 350.244 325.62 359.316 314.442C359.478 314.118 359.802 313.956 360.126 313.956C360.45 313.956 360.774 314.118 361.098 314.28L387.342 338.256C387.666 338.418 387.666 338.742 387.666 339.228C387.666 339.552 387.504 339.876 387.342 340.2C381.672 345.546 376.488 351.216 371.952 357.372L407.916 395.766H408.078C421.524 391.068 423.792 392.364 424.44 392.688C424.926 393.012 425.412 393.498 425.412 394.146C426.222 397.386 422.982 399.978 419.256 401.598C435.456 410.346 434.646 413.262 434.484 414.558C433.35 419.58 419.742 434.97 415.368 434.97ZM360.45 317.034C351.864 327.888 343.926 339.228 336.636 351.054C327.888 365.634 374.058 402.246 392.688 415.044C402.408 423.63 413.424 432.54 415.368 432.702C417.96 432.702 430.92 418.932 432.054 414.234C432.054 414.234 432.378 411.318 415.692 402.57C415.044 402.246 414.882 401.436 415.206 400.95C415.368 400.626 415.53 400.464 415.854 400.302C419.58 399.168 423.144 396.9 422.982 394.956C422.496 394.794 419.742 394.47 408.24 398.358C407.916 398.52 407.592 398.52 407.268 398.358L406.458 398.034C406.296 398.034 406.134 397.872 406.134 397.71L369.36 358.344C369.036 357.858 368.874 357.21 369.198 356.886C373.734 350.568 378.918 344.736 384.588 339.39L360.45 317.034Z" fill="#231F20"/>
<path d="M426.06 346.032C424.926 345.06 423.468 344.736 422.172 345.222C417.15 347.004 405.324 351.864 408.402 356.238C411.48 360.612 426.222 369.36 432.216 372.924C433.674 373.896 446.958 359.964 445.5 358.668L426.06 346.032Z" fill="white"/>
<path d="M432.378 374.22C432.054 374.22 431.892 374.22 431.568 374.058C423.792 369.522 410.346 361.422 407.268 357.048C406.62 356.076 406.458 354.942 406.782 353.808C408.078 349.92 415.53 346.518 421.686 344.25C423.468 343.602 425.412 343.926 426.708 345.222L445.986 357.858L446.148 358.02C447.444 359.154 446.148 361.098 444.852 362.718C442.746 365.472 440.478 367.902 438.048 370.332C434.808 373.41 433.35 374.22 432.378 374.22ZM423.63 346.194C423.306 346.194 422.982 346.194 422.658 346.356C415.044 349.11 409.86 352.188 409.212 354.456C409.05 354.78 409.212 355.266 409.374 355.59C411.318 358.344 419.904 364.338 432.54 371.628C434.808 370.656 443.07 361.908 444.204 359.316L425.412 347.004L425.25 346.842C424.926 346.518 424.278 346.194 423.63 346.194Z" fill="#231F20"/>
<path d="M469.962 356.562C469.314 356.562 468.828 356.076 468.666 355.428L468.504 327.24C468.504 326.592 468.99 326.106 469.638 325.944C470.286 325.944 470.772 326.43 470.934 327.24L471.096 355.428C471.258 355.914 470.61 356.4 469.962 356.562Z" fill="#231F20"/>
<path d="M389.124 342.144C388.8 342.144 388.476 341.982 388.314 341.82L356.238 312.984C355.914 312.822 355.752 312.336 355.914 312.012C355.914 311.688 356.076 311.202 356.4 311.04L388.962 285.606L389.124 285.444C389.61 285.282 399.978 279.936 406.458 279.288C407.106 279.288 407.754 279.774 407.754 280.422C407.754 281.07 407.268 281.718 406.62 281.718C400.95 282.204 391.392 287.064 390.258 287.55L358.992 312.012L389.934 339.876C390.42 340.362 390.42 341.01 390.096 341.658C389.772 341.982 389.448 342.144 389.124 342.144Z" fill="#231F20"/>
<path d="M52.002 379.89C52.002 379.89 46.98 408.078 31.752 506.25C16.686 603.612 12.96 647.19 12.96 647.19L61.236 652.374C61.236 652.374 86.67 479.196 94.932 455.544L113.4 649.62H157.14L142.884 384.588L52.002 379.89Z" fill="#231F20"/>
<path d="M61.2359 653.67L12.9599 648.486C12.3119 648.486 11.8259 647.838 11.8259 647.19C11.8259 646.704 15.5519 602.478 30.6179 506.088C45.6839 409.05 50.7059 380.052 50.8679 379.728C51.0299 379.08 51.5159 378.756 52.1639 378.756L143.046 383.454C143.694 383.454 144.18 383.94 144.18 384.588L158.436 649.62C158.436 649.944 158.274 650.268 158.112 650.43C157.95 650.754 157.626 650.754 157.302 650.754H113.562C112.914 650.754 112.428 650.268 112.266 649.62L94.4459 461.862C85.0499 500.256 62.8559 650.754 62.6939 652.374C62.5319 653.184 61.8839 653.67 61.2359 653.67ZM14.2559 646.218L60.1019 651.24C62.6939 634.716 85.8599 477.9 93.7979 455.22C93.9599 454.734 94.4459 454.41 95.0939 454.41C95.7419 454.41 96.0659 454.896 96.2279 455.544L114.534 648.648H156.006L141.75 386.046L53.1359 381.348C52.1639 387.342 46.6559 419.742 33.0479 506.574C19.4399 594.054 15.0659 638.442 14.2559 646.218Z" fill="#231F20"/>
<path d="M144.18 318.654C147.258 336.636 147.906 374.058 147.906 386.694C147.906 386.694 134.46 386.856 118.584 386.856C108.864 386.856 97.362 386.694 85.536 386.37C73.71 386.046 61.236 385.236 50.058 383.94C50.22 379.89 52.488 336.96 54.108 306.018C55.242 286.578 41.796 270.216 56.214 261.63C72.576 251.1 94.284 246.24 117.288 248.508C117.288 248.508 148.554 254.502 157.626 262.116C166.698 269.73 144.18 318.654 144.18 318.654Z" fill="#035FAA"/>
<path d="M120.852 250.128L118.584 386.694C108.864 386.694 97.3619 386.532 85.5359 386.208L87.6419 250.128H120.852Z" fill="#231F20"/>
<path d="M117.126 387.99C105.786 387.99 95.2559 387.828 85.5359 387.504C84.8879 387.504 84.4019 386.856 84.4019 386.208L86.5079 250.128C86.5079 249.48 86.9939 248.994 87.6419 248.994H120.852C121.176 248.994 121.5 249.156 121.662 249.318C121.824 249.48 121.986 249.804 121.986 250.128L119.718 386.694C119.718 387.342 119.232 387.828 118.422 387.828H117.126V387.99ZM86.8319 385.074C96.2279 385.398 106.596 385.56 117.45 385.56L119.556 251.424H88.7759L86.8319 385.074Z" fill="#231F20"/>
<path d="M79.5419 189.864C81.1619 186.138 85.8599 186.138 88.6139 186.462C89.0999 182.25 107.73 171.72 120.852 175.284C123.12 176.094 125.388 177.066 127.332 178.524C131.22 180.954 134.298 184.356 136.404 188.568C138.348 192.78 138.186 197.64 135.918 201.69C131.058 209.466 117.936 209.79 114.21 218.214C112.914 220.968 112.914 224.37 111.294 226.8C110.16 228.42 108.702 229.554 106.92 230.526C103.356 232.47 99.1439 233.766 95.0939 232.632C82.4579 228.744 72.5759 203.148 79.5419 189.864Z" fill="#231F20"/>
<path d="M98.3339 234.09C97.1999 234.09 95.9039 233.928 94.7699 233.604C88.9379 231.822 83.2679 225.666 79.7039 216.918C76.3019 208.98 74.3579 197.64 78.5699 189.378C80.5139 185.166 85.3739 185.004 87.8039 185.166C89.0999 183.222 90.7199 181.602 92.8259 180.468C100.116 175.608 112.104 171.558 121.338 174.15C123.768 174.96 126.036 176.094 128.142 177.552C132.192 180.144 135.432 183.708 137.7 188.082C139.806 192.618 139.644 197.964 137.214 202.338C134.622 206.388 130.248 208.494 126.036 210.438C121.824 212.382 117.45 214.65 115.506 218.538C115.02 219.672 114.696 220.806 114.372 222.102C114.048 223.884 113.4 225.666 112.428 227.286C111.132 229.068 109.512 230.364 107.568 231.336C104.652 232.956 101.412 233.928 98.3339 234.09ZM86.6699 187.596C83.4299 187.596 81.4859 188.568 80.6759 190.35C77.4359 196.506 77.9219 206.388 81.9719 215.784C85.3739 223.884 90.3959 229.554 95.5799 231.012C99.4679 232.146 103.68 230.526 106.434 229.068C108.054 228.258 109.35 227.124 110.322 225.828C111.132 224.37 111.618 222.912 111.942 221.292C112.266 219.996 112.59 218.538 113.238 217.404C115.506 212.544 120.204 210.276 124.902 208.008C129.114 206.064 133.002 204.12 135.108 200.718C137.214 196.992 137.376 192.618 135.432 188.73C133.488 184.842 130.572 181.602 126.846 179.334C124.902 178.038 122.958 176.904 120.69 176.256C111.618 173.826 99.9539 178.524 94.2839 182.25C91.0439 184.356 90.0719 185.814 90.0719 186.462C89.9099 187.11 89.4239 187.596 88.7759 187.596C87.8039 187.596 87.1559 187.596 86.6699 187.596Z" fill="#231F20"/>
<path d="M131.706 215.298C133.164 213.84 135.432 214.002 136.728 215.298C139.158 217.89 136.404 225.666 133.164 227.124" fill="white"/>
<path d="M133.164 228.42C132.516 228.42 131.868 227.934 131.868 227.286C131.868 226.8 132.192 226.314 132.678 226.152C134.136 225.504 135.756 222.912 136.242 220.32C136.728 219.024 136.566 217.566 135.918 216.27C135.108 215.298 133.65 215.298 132.678 216.108L132.516 216.27C132.03 216.756 131.22 216.594 130.734 216.108C130.248 215.622 130.248 214.974 130.734 214.488C131.706 213.516 133.002 213.03 134.46 213.03C135.756 213.03 136.89 213.678 137.538 214.65C138.834 216.432 139.158 218.7 138.51 220.806C137.862 223.722 136.08 227.286 133.488 228.42C133.488 228.42 133.326 228.42 133.164 228.42Z" fill="#231F20"/>
<path d="M109.35 268.11C108.864 268.272 108.54 268.434 108.054 268.596C104.814 269.568 101.088 268.596 97.362 266.004C86.508 258.552 88.776 227.61 88.452 225.342C88.29 224.37 83.916 223.074 84.564 221.778C85.05 220.806 85.698 219.996 86.508 219.348L86.832 219.024C89.91 215.946 91.854 211.896 92.502 207.522C93.15 203.148 93.15 198.612 92.664 194.076C92.664 193.428 93.15 192.942 93.636 192.942C94.122 192.942 94.608 193.266 94.77 193.752C95.58 194.562 100.764 196.182 109.026 197.64C114.372 198.612 119.718 198.936 125.064 198.774C129.114 198.612 129.762 198.936 130.572 202.824L130.734 203.148C131.382 205.902 132.03 208.98 132.516 212.058C133.65 218.052 134.136 224.046 134.136 230.202C134.298 233.442 133.488 236.682 131.868 239.436C129.438 243.162 125.388 244.62 121.176 245.916C121.176 247.536 121.176 248.994 121.176 250.29C121.176 256.608 121.176 259.524 113.4 265.842C112.104 266.652 110.808 267.624 109.35 268.11Z" fill="white"/>
<path d="M105.462 270.216C102.222 270.054 99.144 269.082 96.714 267.138C86.832 260.334 87.156 235.872 87.318 227.772C87.318 226.962 87.318 226.152 87.318 225.828C86.832 225.504 86.508 225.342 86.022 225.018C84.564 224.208 82.782 223.074 83.43 221.454C83.916 220.32 84.726 219.348 85.698 218.538L86.022 218.214C88.938 215.298 90.72 211.572 91.368 207.36C92.016 202.986 92.016 198.774 91.53 194.4V194.238C91.53 193.59 91.692 192.942 92.016 192.456C92.826 191.484 94.284 191.322 95.256 192.294C95.418 192.456 95.58 192.618 95.742 192.942C96.714 193.428 100.926 194.886 109.188 196.506C114.372 197.478 119.718 197.802 124.902 197.478C129.6 197.154 130.572 197.964 131.544 202.338V202.662C132.192 205.578 132.84 208.656 133.326 211.572C134.46 217.566 134.946 223.722 134.946 229.878C135.108 233.28 134.136 236.682 132.516 239.76C130.086 243.486 126.036 245.268 121.986 246.564C121.986 247.86 121.986 248.994 121.986 249.966C121.986 256.446 121.986 259.686 113.724 266.49C112.428 267.624 111.132 268.434 109.674 269.082H109.512C108.378 269.73 106.92 270.054 105.462 270.216ZM85.86 221.94C86.346 222.264 86.832 222.588 87.318 222.912C88.614 223.56 89.586 224.208 89.748 225.342C89.748 225.666 89.748 226.314 89.748 227.934C89.586 235.71 89.262 259.038 98.172 265.194C101.574 267.462 104.976 268.434 107.73 267.624C108.054 267.462 108.54 267.462 108.864 267.3H109.026C110.16 266.652 111.294 266.004 112.428 265.032C119.718 259.038 119.718 256.77 119.718 250.452C119.718 248.994 119.718 247.536 119.718 246.078C119.718 245.592 120.042 245.106 120.528 244.944C124.254 243.81 128.304 242.352 130.572 238.95C132.03 236.358 132.678 233.28 132.678 230.364C132.678 224.37 132.192 218.376 131.058 212.544C130.572 209.628 129.924 206.712 129.276 203.634V203.31C128.628 200.07 128.628 200.07 125.064 200.232C119.556 200.556 114.048 200.232 108.702 199.098C104.004 198.288 99.306 197.154 94.77 195.372C94.446 195.372 94.122 195.21 93.798 194.886C94.284 199.26 94.284 203.634 93.636 208.008C92.988 212.544 90.882 216.918 87.642 220.158L87.318 220.482C86.67 220.806 86.184 221.292 85.86 221.94Z" fill="#231F20"/>
<path d="M96.2279 234.09C93.7979 232.794 92.1779 230.364 92.0159 227.61C89.7479 228.582 87.1559 228.582 84.8879 227.61C81.1619 225.828 78.7319 221.94 78.8939 217.728C78.8939 216.594 79.2179 215.622 79.7039 214.65C80.6759 213.192 82.6199 212.382 84.4019 212.868C87.1559 213.192 88.1279 214.488 90.0719 216.27" fill="white"/>
<path d="M96.2279 235.224C96.0659 235.224 95.7419 235.224 95.5799 235.062C93.3119 233.766 91.8539 231.66 91.0439 229.23C88.7759 229.878 86.5079 229.716 84.4019 228.744C80.1899 226.8 77.5979 222.426 77.7599 217.728C77.7599 216.432 78.0839 215.136 78.7319 214.002C80.0279 212.058 82.2959 211.086 84.5639 211.572C86.6699 211.896 88.7759 212.868 90.2339 214.65L90.8819 215.298C91.3679 215.784 91.3679 216.594 90.8819 217.08C90.3959 217.404 89.7479 217.566 89.2619 217.242L88.4519 216.594C87.3179 215.298 85.8599 214.488 84.0779 214.164C81.8099 213.84 80.9999 214.812 80.5139 215.46C80.0279 216.27 79.8659 217.08 79.8659 217.89C79.7039 221.616 81.8099 225.018 85.0499 226.638C86.9939 227.448 89.2619 227.448 91.2059 226.638C91.8539 226.476 92.5019 226.638 92.8259 227.286C92.8259 227.448 92.8259 227.61 92.8259 227.772C92.9879 230.04 94.4459 232.146 96.3899 233.118C96.8759 233.442 97.0379 234.252 96.7139 234.738C97.0379 235.062 96.5519 235.224 96.2279 235.224Z" fill="#231F20"/>
<path d="M120.69 254.826C115.992 255.15 111.294 253.53 107.73 250.29C104.976 248.022 103.356 244.782 103.032 241.38C103.032 241.38 108.216 247.05 120.69 245.754V254.826Z" fill="#231F20"/>
<path d="M119.556 256.122C114.858 256.122 110.484 254.34 106.92 251.262C103.842 248.832 102.06 245.268 101.898 241.38C101.898 240.894 102.222 240.408 102.708 240.246C103.194 240.084 103.68 240.246 104.004 240.57C104.004 240.57 109.026 245.754 120.69 244.62C121.014 244.62 121.338 244.62 121.662 244.944C121.986 245.106 121.986 245.592 121.986 245.916L121.824 254.988C121.824 255.636 121.338 256.122 120.69 256.122C120.852 256.122 120.366 256.122 119.556 256.122ZM104.814 244.296C105.624 246.402 106.758 248.184 108.54 249.48C111.618 252.072 115.506 253.692 119.556 253.692L119.718 247.05C114.534 247.698 109.35 246.726 104.814 244.296Z" fill="#231F20"/>
<path d="M118.584 211.896C118.584 211.896 123.768 223.074 122.148 224.856C120.852 225.99 119.232 226.314 117.612 225.666" fill="white"/>
<path d="M119.556 227.124C118.746 227.124 118.098 226.962 117.45 226.8C116.802 226.638 116.478 225.828 116.64 225.342C116.802 224.694 117.612 224.37 118.098 224.532C118.098 224.532 120.204 225.18 121.338 224.046C121.824 223.074 120.042 217.566 117.612 212.382C117.288 211.734 117.612 211.086 118.098 210.762C118.746 210.438 119.394 210.762 119.718 211.41C121.824 215.784 125.064 223.56 123.12 225.666C122.31 226.638 120.852 227.124 119.556 227.124Z" fill="#231F20"/>
<path d="M125.744 215.615C126.369 215.575 126.788 214.168 126.681 212.471C126.574 210.775 125.98 209.432 125.355 209.471C124.73 209.511 124.31 210.918 124.417 212.615C124.525 214.311 125.119 215.654 125.744 215.615Z" fill="#231F20"/>
<path d="M108.261 215.781C108.975 215.736 109.463 214.252 109.35 212.466C109.237 210.68 108.566 209.269 107.852 209.314C107.138 209.36 106.65 210.844 106.763 212.63C106.876 214.416 107.547 215.827 108.261 215.781Z" fill="#231F20"/>
<path d="M108.216 233.118C111.78 235.872 116.802 238.464 121.5 235.548C133.326 228.096 104.976 230.688 108.216 233.118Z" fill="white"/>
<path d="M117.126 237.978C113.562 237.816 110.16 236.358 107.568 234.09C106.92 233.604 106.596 232.956 106.92 232.146C107.892 229.392 117.774 229.23 119.556 229.392C123.282 229.554 125.064 230.364 125.55 231.984C126.036 233.928 123.93 235.548 122.148 236.52C120.69 237.492 118.908 237.978 117.126 237.978ZM109.836 232.956C112.914 235.224 117.126 236.844 120.852 234.576C121.662 234.09 122.472 233.442 123.12 232.632C122.31 232.146 121.338 231.984 120.366 231.984C116.802 231.66 113.238 231.984 109.836 232.956Z" fill="#231F20"/>
<path d="M23.3279 310.392C23.3279 310.392 15.3899 322.704 12.3119 326.754C2.75389 342.306 41.7959 402.894 41.7959 402.894C41.7959 402.894 42.2819 413.91 47.7899 419.904C53.2979 425.898 59.9399 433.998 66.4199 422.01C72.8999 410.022 72.8999 407.916 70.9559 404.514C69.0119 401.112 56.8619 399.006 57.3479 394.956C57.8339 390.906 61.3979 392.364 63.3419 389.448C65.2859 386.532 60.2639 385.236 52.8119 386.208C52.8119 386.208 38.0699 343.602 37.5839 338.094C40.3379 333.882 43.2539 329.67 46.3319 325.782L23.3279 310.392Z" fill="white"/>
<path d="M59.1299 429.3C54.9179 429.3 51.1919 425.088 47.7899 421.362L47.1419 420.552C41.9579 414.882 40.9859 405 40.8239 403.056C37.5839 398.034 1.94394 341.496 11.5019 325.782C14.5799 321.732 22.3559 309.582 22.5179 309.42C22.6799 309.096 23.0039 308.934 23.3279 308.934C23.6519 308.934 23.9759 308.934 24.2999 309.096L47.3039 324.324C47.6279 324.486 47.7899 324.81 47.7899 325.134C47.7899 325.458 47.7899 325.782 47.4659 326.106C44.3879 329.832 41.6339 333.72 39.0419 337.932C39.8519 343.116 48.9239 370.008 53.9459 384.588C57.3479 384.264 63.3419 383.94 64.9619 386.532C65.6099 387.504 65.4479 388.8 64.6379 389.772C63.8279 391.068 62.5319 391.878 61.0739 392.364C59.7779 392.85 59.1299 393.174 58.9679 394.632C58.8059 396.09 62.5319 397.71 65.2859 398.844C68.3639 400.302 71.2799 401.436 72.4139 403.38C74.6819 407.43 74.5199 409.86 67.8779 422.172C65.6099 426.384 63.0179 428.652 60.2639 428.976C59.6159 429.3 59.2919 429.3 59.1299 429.3ZM23.6519 312.012C21.7079 315.09 15.8759 324 13.2839 327.402C5.83194 339.552 32.0759 385.56 42.9299 402.246C43.0919 402.408 43.0919 402.57 43.0919 402.894C43.0919 403.056 43.5779 413.586 48.7619 419.094L49.4099 419.904C52.6499 423.306 56.2139 427.356 59.4539 427.032C61.3979 426.87 63.3419 424.926 65.2859 421.362C71.7659 409.374 71.4419 407.916 69.8219 405C69.1739 403.866 66.2579 402.57 63.8279 401.436C59.9399 399.654 55.7279 397.872 56.0519 394.794C56.2139 392.688 57.8339 391.068 59.7779 390.582C60.7499 390.258 61.7219 389.772 62.3699 388.8C62.3699 388.8 62.6939 388.314 62.5319 388.152C62.2079 387.504 59.2919 386.532 52.9739 387.342C52.3259 387.504 51.8399 387.018 51.6779 386.532C51.0299 384.75 36.7739 343.764 36.2879 338.094C36.2879 337.932 36.2879 337.608 36.4499 337.446C38.8799 333.396 41.6339 329.67 44.5499 325.944L23.6519 312.012Z" fill="#231F20"/>
<path d="M182.088 319.788C182.088 319.788 184.518 330.804 187.11 339.39C192.294 356.886 157.626 408.888 157.626 408.888C157.626 408.888 157.14 419.904 151.632 425.898C146.124 431.892 139.644 439.992 133.164 427.842C126.684 415.692 126.684 413.748 128.628 410.346C130.572 406.944 142.722 404.838 142.236 400.788C141.75 396.738 138.186 398.358 136.242 395.28C134.298 392.202 139.32 391.068 146.772 392.04C146.772 392.04 161.514 349.434 162 343.926C159.732 339.39 157.788 334.692 156.168 329.832L182.088 319.788Z" fill="white"/>
<path d="M140.454 435.456H139.644C136.728 435.132 134.298 432.864 132.03 428.652C125.388 416.34 125.226 413.91 127.494 409.86C128.628 407.916 131.544 406.62 134.622 405.324C137.376 404.19 141.102 402.408 140.94 401.112C140.778 399.816 140.13 399.33 138.672 398.682C137.214 398.196 135.918 397.224 135.108 396.09C134.298 395.118 134.298 393.822 134.784 392.85C136.404 390.258 142.398 390.582 145.8 390.906C150.822 376.326 159.894 349.434 160.704 344.25C158.436 339.714 156.492 335.178 154.872 330.318C154.71 329.67 155.034 329.022 155.52 328.86L181.602 318.816C181.926 318.654 182.25 318.654 182.574 318.816C182.898 318.978 183.06 319.302 183.222 319.626C183.222 319.788 185.814 330.804 188.244 339.066C193.266 356.4 161.838 404.676 158.922 409.212C158.76 411.156 157.788 420.876 152.604 426.708L151.956 427.518C148.392 431.244 144.666 435.456 140.454 435.456ZM141.912 393.012C138.672 393.012 137.214 393.66 136.89 394.146C136.728 394.308 137.052 394.632 137.052 394.794C137.7 395.604 138.51 396.252 139.644 396.576C141.75 397.062 143.208 398.844 143.37 400.95C143.694 404.028 139.644 405.972 135.594 407.754C133.164 408.888 130.248 410.022 129.6 411.318C127.98 414.234 127.656 415.854 134.136 427.68C135.918 431.082 138.024 433.026 139.968 433.188C143.208 433.512 146.772 429.624 150.012 426.222L150.66 425.412C155.844 419.742 156.33 409.212 156.33 409.05C156.33 408.888 156.492 408.564 156.492 408.402C156.816 407.916 190.674 356.724 185.814 340.038C183.87 333.396 181.926 324.972 181.116 321.732L157.464 330.804C159.084 335.178 160.866 339.39 162.972 343.602C163.134 343.764 163.134 344.088 163.134 344.25C162.648 349.92 148.392 390.906 147.744 392.688C147.582 393.174 146.934 393.66 146.448 393.498C144.99 393.012 143.37 393.012 141.912 393.012Z" fill="#231F20"/>
<path d="M52.002 265.842L17.01 308.772L50.868 332.586L63.828 306.666" fill="#035FAA"/>
<path d="M144.18 318.654L152.928 333.882L188.568 320.76C188.568 320.76 171.558 271.188 157.788 262.116L144.18 318.654Z" fill="#035FAA"/>
<path d="M179.982 298.566C179.496 298.566 179.01 298.242 178.848 297.756C165.726 263.25 144.18 255.96 144.018 255.798C143.37 255.636 143.046 254.988 143.208 254.34C143.37 253.692 144.018 253.368 144.666 253.53C145.638 253.854 167.508 261.144 181.116 296.946C181.44 297.594 181.116 298.242 180.468 298.566C180.306 298.566 180.144 298.566 179.982 298.566Z" fill="#231F20"/>
</svg>
